*******************************************************************************
                         Hell's Drifter (2009) WEBRip
*******************************************************************************

-------------------------------------------------------------------------------
                              General Information
-------------------------------------------------------------------------------
Type.................: Movie



Video Format.........: MKV
Video Bitrate........: 2161
Resolution...........: 640 x 360
Color................: 8 bit
FPS..................: 29.970
Source...............: WEB 16:9
Original Format......: NTSC
Genre................: Horror
IMDb Rating..........: 1.2
Movie Information....: http://www.imdb.com/title/tt1329363/

-------------------------------------------------------------------------------
                               Post Information
-------------------------------------------------------------------------------
Posted by............: RadioResearch
Posted on............: 3/21/2013

-------------------------------------------------------------------------------
                                 Release Notes
-------------------------------------------------------------------------------
SEEDBOX SUPPORTED!!

After having an acrimonious argument with his girlfriend, Greg Wallace takes his 
vicious temper out on the wrong person: a wandering vagrant. As luck would have 
it, this is not just any wandering vagrant, but one who retains powerful grudges 
against those who do him wrong. Later when Greg is involved in a serious 
accident in which he breaks both his legs, the vagrant is the only person who 
finds him. But rescue, however, is the last thing on the vagrant's mind: he 
wants retribution. Too isolated for help to reach him and with his condition 
rapidly deteriorating, Greg is forced to engage in a psychological game of cat 
and mouse with the evil transient which ends up dragging in innocent passers-by 
and even those Greg cares about. A ruthless battle of wills ensues with every 
manner of Red Herring thrown in along the way, leading to a shattering climax.

Enjoy!

RadioResearch

General
Complete name                            : G:Hell's Drifter (2009)Hell's 
Drifter.mkv
Format                                   : Matroska
Format version                           : Version 1
File size                                : 1.43 GiB
Duration                                 : 1h 34mn
Overall bit rate                         : 2 161 Kbps
Encoded date                             : UTC 2013-03-20 17:17:12
Writing library                          : WonderShare Matroska Muxer

Video
ID                                       : 1
Format                                   : AVC
Format/Info                              : Advanced Video Codec
Format profile                           : Baseline@L3.0
Format settings, CABAC                   : No
Format settings, ReFrames                : 1 frame
Format settings, GOP                     : M=1, N=25
Codec ID                                 : V_MPEG4/ISO/AVC
Duration                                 : 1h 34mn
Bit rate                                 : 1 990 Kbps
Width                                    : 640 pixels
Height                                   : 360 pixels
Display aspect ratio                     : 16:9
Frame rate mode                          : Variable
Frame rate                               : 29.970 fps
Original frame rate                      : 29.000 fps
Color space                              : YUV
Chroma subsampling                       : 4:2:0
Bit depth                                : 8 bits
Scan type                                : Progressive
Bits/(Pixel*Frame)                       : 0.288
Stream size                              : 1.32 GiB (92%)
Default                                  : Yes
Forced                                   : No

Audio
ID                                       : 2
Format                                   : AC-3
Format/Info                              : Audio Coding 3
Mode extension                           : CM (complete main)
Format settings, Endianness              : Big
Codec ID                                 : A_AC3
Duration                                 : 1h 34mn
Bit rate mode                            : Constant
Bit rate                                 : 128 Kbps
Channel(s)                               : 2 channels
Channel positions                        : Front: L R
Sampling rate                            : 44.1 KHz
Bit depth                                : 16 bits
Compression mode                         : Lossy
Stream size                              : 86.8 MiB (6%)
Default                                  : Yes
Forced                                   : No




-------------------------------------------------------------------------------
Generated with Cool NFO Creator - http://fly.to/coolbeans
-------------------------------------------------------------------------------
